# xmcd CD database file
#
# Track frame offsets:
#	150
#	39025
#	63946
#	91985
#	118322
#	146585
#	165870
#	198125
#	220016
#	243082
#	256359
#
# Disc length: 3704 seconds
#
# Revision: 0
# Processed by: cddbd v1.5.2PL0 Copyright (c) Steve Scherf et al.
# Submitted via: CDex 1.51
#
DISCID=880e760b
DTITLE=StandHard Trio feat. Silvia Donati  - Cocktail Saturno
DYEAR=2008
DGENRE=Jazz
TTITLE0=Pyramid Song
TTITLE1=Child Of The Rings
TTITLE2=Mood Indigo
TTITLE3=Have A Talk With God v.2
TTITLE4=Risky
TTITLE5=Garota De Ipanema
TTITLE6=No Good Time Fairies
TTITLE7=Alem (Throughout)
TTITLE8=Bah-Ree-Chen-Trees
TTITLE9=Synthetic
TTITLE10=Have A Talk With God v.1
EXTD=YEAR: 2008
EXTT0=
EXTT1=
EXTT2=
EXTT3=
EXTT4=
EXTT5=
EXTT6=
EXTT7=
EXTT8=
EXTT9=
EXTT10=
PLAYORDER=
